<?xml version="1.0" encoding="UTF-8"?>
<!DOCTYPE svg PUBLIC "-//W3C//DTD SVG 1.1//EN" "http://www.w3.org/Graphics/SVG/1.1/DTD/svg11.dtd">
<!-- Creator: CorelDRAW 2019 (64-Bit) -->
<svg xmlns="http://www.w3.org/2000/svg" xml:space="preserve" width="71.12mm" height="27.94mm" version="1.1" style="shape-rendering:geometricPrecision; text-rendering:geometricPrecision; image-rendering:optimizeQuality; fill-rule:evenodd; clip-rule:evenodd"
viewBox="0 0 7112 2794"
 xmlns:xlink="http://www.w3.org/1999/xlink"
 xmlns:xodm="http://www.corel.com/coreldraw/odm/2003">
 <defs>
  <style type="text/css">
   <![CDATA[
    .fil7 {fill:#A00D2A;fill-rule:nonzero}
    .fil0 {fill:url(#id0)}
    .fil1 {fill:url(#id1)}
    .fil3 {fill:url(#id2);fill-rule:nonzero}
    .fil2 {fill:url(#id3);fill-rule:nonzero}
    .fil5 {fill:url(#id4);fill-rule:nonzero}
    .fil4 {fill:url(#id5);fill-rule:nonzero}
    .fil6 {fill:url(#id6);fill-rule:nonzero}
   ]]>
  </style>
  <linearGradient id="id0" gradientUnits="userSpaceOnUse" x1="2746.91" y1="2581.1" x2="975.87" y2="376">
   <stop offset="0" style="stop-opacity:1; stop-color:#FFFF95"/>
   <stop offset="0.0666667" style="stop-opacity:1; stop-color:#E5CF64"/>
   <stop offset="0.121569" style="stop-opacity:1; stop-color:#DFB23A"/>
   <stop offset="0.211765" style="stop-opacity:1; stop-color:#F6EA75"/>
   <stop offset="0.458824" style="stop-opacity:1; stop-color:#BF8923"/>
   <stop offset="0.501961" style="stop-opacity:1; stop-color:#B17719"/>
   <stop offset="0.658824" style="stop-opacity:1; stop-color:#EEDC69"/>
   <stop offset="1" style="stop-opacity:1; stop-color:#CB9F33"/>
  </linearGradient>
  <linearGradient id="id1" gradientUnits="userSpaceOnUse" xlink:href="#id0" x1="2673.82" y1="2581.1" x2="1301.25" y2="376">
  </linearGradient>
  <linearGradient id="id2" gradientUnits="userSpaceOnUse" x1="881.38" y1="897.88" x2="891.97" y2="755.46">
   <stop offset="0" style="stop-opacity:1; stop-color:#B88C27"/>
   <stop offset="1" style="stop-opacity:1; stop-color:#FFCC00"/>
  </linearGradient>
  <linearGradient id="id3" gradientUnits="userSpaceOnUse" x1="1453.98" y1="211.64" x2="1453.99" y2="2011.95">
   <stop offset="0" style="stop-opacity:1; stop-color:#CF1338"/>
   <stop offset="1" style="stop-opacity:1; stop-color:#960C27"/>
  </linearGradient>
  <linearGradient id="id4" gradientUnits="userSpaceOnUse" xlink:href="#id3" x1="2024.1" y1="1032.77" x2="2024.13" y2="1768.39">
  </linearGradient>
  <linearGradient id="id5" gradientUnits="userSpaceOnUse" xlink:href="#id3" x1="1512.04" y1="1087.91" x2="1512.05" y2="1704.38">
  </linearGradient>
  <linearGradient id="id6" gradientUnits="userSpaceOnUse" xlink:href="#id3" x1="607.73" y1="1966.24" x2="607.73" y2="2702.36">
  </linearGradient>
 </defs>
 <g id="Layer_x0020_1">
  <metadata id="CorelCorpID_0Corel-Layer"/>
  <g id="_1784140170464">
   <g>
    <path class="fil0" d="M780.41 915.81c-110.75,155.08 -150.48,340.19 -124.9,515.79 26.23,180.19 121.22,350.37 278.71,467.82 73.59,54.88 156.54,94.48 244.02,117.53 79.16,20.85 161.9,28.06 244.62,20.67 -11.8,-27.85 -17.23,-58.03 -15.93,-88.15 -69.66,5.32 -139.2,-1.15 -205.8,-18.71 -76.25,-20.09 -148.82,-54.8 -213.46,-103.01 -137.71,-102.7 -220.76,-251.49 -243.7,-409.04 -22.28,-152.96 12.12,-314.21 108.16,-449.5 -13.52,-6.02 -26.6,-13.61 -38.97,-22.82 -12.26,-9.15 -23.18,-19.43 -32.75,-30.58zm-371.83 524.24c-84.49,-63 -204.04,-45.6 -267.05,38.89 -63,84.48 -45.59,204.05 38.89,267.05 84.48,63.01 204.05,45.6 267.04,-38.89 63.01,-84.49 45.61,-204.05 -38.88,-267.05zm1231.13 422.88c-50.46,-37.63 -121.88,-27.23 -159.52,23.23 -37.64,50.47 -27.23,121.89 23.23,159.53 50.47,37.63 121.89,27.23 159.52,-23.24 37.64,-50.46 27.24,-121.88 -23.23,-159.52zm782.37 -974.72c-39.61,-95.47 -91.48,-184.48 -153.91,-264.87 -63.23,-81.39 -137.41,-154.32 -220.8,-216.51 -73.58,-54.86 -153.4,-100.6 -237.66,-136.43 -68.78,-29.23 -140.43,-51.78 -213.99,-67.21 6.56,1.4 56.02,118.44 56.02,118.44 40.24,11.67 79.72,25.74 118.24,42.12 76.44,32.5 149.19,74.24 216.61,124.52 76.03,56.69 143.67,123.2 201.34,197.44 48.63,62.62 90.11,130.52 123.47,202.5l110.68 0zm-2092.38 939.68c34.49,71.15 76.27,138.48 124.56,200.96 63.42,82.06 137.74,155.35 221.17,217.57 200.07,149.2 437.07,224.93 674.77,226.87 237.66,1.95 475.88,-69.89 678.37,-215.81l-0.41 -0.57c-24.29,-19.29 -42.43,-43.6 -54.06,-70.33 -186.34,133.55 -405.07,199.3 -623.16,197.52 -218.96,-1.79 -437.45,-71.66 -622.06,-209.35 -77.43,-57.75 -146.05,-125.3 -204.22,-200.57 -42.27,-54.68 -79.19,-113.66 -110.16,-176.14 -26.29,15.37 -55.12,25.4 -84.8,29.85zm816.97 -1623.11c-140.74,26.65 -274.03,79.3 -393.64,154.05 -119.6,74.76 -225.29,171.42 -310.82,286.1 -85.77,115.01 -148.39,244.22 -185.9,380.46 -30.59,111.15 -44.39,226.93 -40.33,343.46 28.51,-9.95 58.71,-14.4 88.88,-13.12 -2.64,-104.06 10.16,-207.37 37.5,-306.68 34.5,-125.33 92.27,-244.41 171.52,-350.67 79.15,-106.13 176.59,-195.36 286.58,-264.1 110,-68.75 199.35,-97.06 290.21,-125.44l56 -104.06z"/>
    <path class="fil1" d="M780.41 915.81c-110.75,155.08 -150.48,340.19 -124.9,515.79 26.24,180.18 121.21,350.37 278.71,467.82 73.58,54.88 156.54,94.48 244.02,117.52 79.16,20.86 161.9,28.07 244.61,20.68 -11.79,-27.85 -17.22,-58.03 -15.92,-88.15 -69.66,5.32 -139.2,-1.16 -205.8,-18.71 -76.25,-20.09 -148.82,-54.8 -213.46,-103.01 -137.71,-102.7 -220.76,-251.49 -243.7,-409.04 -22.28,-152.96 12.12,-314.21 108.17,-449.5 -13.53,-6.02 -26.61,-13.6 -38.97,-22.82 -12.27,-9.16 -23.19,-19.43 -32.76,-30.58zm1348.06 1182.72c-31.55,-23.54 -76.21,-17.03 -99.74,14.52 -23.53,31.56 -17.03,76.22 14.53,99.75 31.55,23.54 76.21,17.03 99.74,-14.53 23.54,-31.55 17.03,-76.21 -14.53,-99.74zm-923.26 364.37c-41.41,-36.71 -81.23,-75.01 -119.28,-114.84 86.75,23.29 175.84,35.32 265.01,36.04 218.09,1.79 436.82,-63.97 623.16,-197.52 11.63,26.73 29.77,51.04 54.06,70.33l0.41 0.57c-202.49,145.92 -440.71,217.77 -678.38,215.82 -48.45,-0.4 -96.88,-3.87 -144.98,-10.4zm-579.92 -1891.39c15.03,-54.79 32.62,-108.6 52.49,-161.39 24.4,-18.08 49.5,-35.19 75.25,-51.29 115.09,-71.92 242.87,-123.39 377.74,-150.92l-70.4 109.4c-92,27.19 -179.39,66.64 -259.91,116.97 -62.85,39.27 -121.6,85.25 -175.17,137.23zm1014.42 1291.42c-50.46,-37.63 -121.88,-27.24 -159.52,23.23 -37.64,50.47 -27.23,121.89 23.23,159.53 50.46,37.63 121.89,27.23 159.52,-23.24 37.64,-50.46 27.24,-121.88 -23.23,-159.52zm782.37 -974.72c-39.61,-95.47 -91.48,-184.48 -153.91,-264.87 -63.22,-81.4 -137.41,-154.31 -220.81,-216.51 -73.57,-54.86 -153.39,-100.6 -237.66,-136.42 -66.72,-28.37 -136.16,-50.44 -207.42,-65.82l78.81 126.02c30.12,9.7 59.78,20.76 88.89,33.14 76.44,32.5 149.19,74.24 216.61,124.52 76.03,56.69 143.67,123.2 201.34,197.44 48.63,62.62 90.11,130.52 123.48,202.5l110.67 0z"/>
    <polygon class="fil2" points="1372.23,349.52 1136.24,443.35 1370.92,78.6 1605.59,453.85 "/>
    <path class="fil3" d="M930.68 780.84c-34.28,-25.56 -82.79,-18.5 -108.35,15.78 -25.56,34.28 -18.5,82.79 15.78,108.35 34.28,25.56 82.78,18.5 108.35,-15.78 25.56,-34.28 18.5,-82.79 -15.78,-108.35z"/>
    <path class="fil4" d="M1568.53 1057.52c0,0 -9.95,-3.03 -23.77,-5.73 -13.82,-2.69 -29,-4.55 -29,-4.55l-365.8 0 0 26.64 0 115.3 329.22 0 0 0.17 22.93 0 1.01 0 0.34 -0.17c1.01,0 2.02,0 3.2,0 26.8,0 48.55,21.75 48.55,48.55 0,26.63 -21.75,48.55 -48.55,48.55l-214.76 0 0 -0.34 -141.94 0 0 429.35 141.94 0 0 -286.57 228.92 0c0,0 4.21,-0.17 29.17,-6.24 24.77,-6.24 26.29,-7.42 26.29,-7.42 26.3,-10.45 50.23,-26.63 69.96,-47.7 32.87,-35.4 50.91,-81.42 50.91,-129.63 0,-83.27 -53.44,-154.58 -128.62,-180.21zm579.71 252.53l-191.83 0c-33.55,0 -60.69,-27.15 -60.69,-60.69 0,-33.38 27.14,-60.69 60.69,-60.69l222.01 0c21.41,7.42 36.92,27.82 36.92,51.59l138.9 0c0,-17.87 -2.36,-35.06 -6.91,-51.59 -22.59,-81.75 -97.44,-141.76 -186.44,-141.76l-204.48 0c-72.49,0 -139.91,39.1 -175.99,101.98 -17.37,30.51 -26.64,65.24 -26.64,100.47 0,35.4 9.27,70.13 26.64,100.64 7.75,13.65 17.2,26.13 27.64,37.42 37.93,40.62 91.54,64.56 148.35,64.56l191.83 0c33.38,0 60.69,27.31 60.69,60.69 0,33.54 -27.31,60.69 -60.69,60.69l-218.63 0c-21.41,-7.25 -36.92,-27.65 -36.92,-51.59l-138.91 0c0,17.87 2.37,35.23 6.92,51.59 22.59,81.75 97.6,141.93 186.6,141.93l200.94 0c72.49,0 139.92,-39.11 175.99,-102.15 17.37,-30.34 26.64,-65.07 26.64,-100.47 0,-35.23 -9.27,-69.96 -26.64,-100.47 -36.07,-63.05 -103.5,-102.15 -175.99,-102.15l0 0zm307.48 405.24l141.93 0 0 -226.05 -141.93 -141.6 0 367.65zm570.78 -672.94l-267.69 267.7 -132.84 -132.67 -135.02 -135.03 -35.23 0 0 165.37 141.93 141.94 65.58 65.57 95.41 95.41 18.88 -18.71 25.97 -25.96 7.75 -7.75 28.99 -28.99 75.35 -75.36 0 361.42 141.94 0 0 -672.94 -31.02 0z"/>
    <rect class="fil5" x="2002.24" y="978.41" width="115.22" height="803.01"/>
    <path class="fil6" d="M145.35 1976.62l112.63 -64.78 20.98 36.48c7.95,13.81 12.57,23.12 13.85,27.96 2.01,7.44 1.45,14.95 -1.71,22.56 -3.16,7.6 -9.23,13.99 -18.19,19.14 -6.93,3.99 -13.44,6.06 -19.6,6.28 -6.17,0.21 -11.69,-0.84 -16.6,-3.14 -4.9,-2.32 -8.94,-5.23 -12.1,-8.72 -4.2,-4.8 -9.25,-12.33 -15.16,-22.61l-8.51 -14.79 -42.48 24.43 -13.11 -22.81zm106.72 -31.03l-32.1 18.47 7.14 12.4c5.14,8.94 9.17,14.55 12.08,16.88 2.92,2.34 6.11,3.64 9.64,3.89 3.49,0.25 6.9,-0.56 10.26,-2.48 4.11,-2.38 6.8,-5.53 8.1,-9.45 1.28,-3.95 1.23,-7.93 -0.21,-12.02 -1.06,-2.99 -3.91,-8.56 -8.62,-16.75l-6.29 -10.94zm-38.14 146.49l105.89 -75.31 32.03 45.03c8.05,11.32 12.94,20.23 14.68,26.71 1.77,6.5 1.3,12.99 -1.36,19.53 -2.69,6.55 -7.13,12.05 -13.39,16.5 -7.96,5.66 -16.17,8.01 -24.65,7.03 -8.49,-0.98 -16.69,-5.61 -24.64,-13.92 0.6,6.52 0.34,12.43 -0.77,17.7 -1.09,5.3 -3.96,13.44 -8.58,24.37l-11.47 27.6 -18.18 -25.55 12.22 -31.78c4.29,-11.34 6.79,-18.79 7.48,-22.36 0.68,-3.53 0.63,-6.72 -0.19,-9.56 -0.84,-2.85 -3.01,-6.73 -6.51,-11.66l-3.09 -4.34 -44.22 31.46 -15.25 -21.45zm76.33 -22l11.25 15.83c7.3,10.25 12.28,16.32 14.97,18.27 2.67,1.93 5.6,2.88 8.74,2.8 3.16,-0.05 6.33,-1.24 9.51,-3.5 3.58,-2.54 5.75,-5.53 6.62,-9.01 0.84,-3.45 0.31,-7.12 -1.57,-10.98 -1.01,-1.92 -4.58,-7.21 -10.74,-15.86l-11.86 -16.69 -26.92 19.14zm56.21 93.04c10.02,-8.68 19.73,-14.46 29.14,-17.36 6.93,-2.13 14.09,-2.97 21.41,-2.54 7.33,0.41 13.94,2.08 19.86,5 7.9,3.88 15.32,9.82 22.25,17.82 12.56,14.49 18.08,29.96 16.64,46.46 -1.48,16.48 -10.22,31.67 -26.25,45.55 -15.88,13.76 -32.06,20.22 -48.5,19.37 -16.44,-0.84 -30.93,-8.5 -43.42,-22.92 -12.66,-14.61 -18.28,-30.12 -16.81,-46.47 1.44,-16.35 10,-31.32 25.68,-44.91zm18.38 19.86c-11.14,9.65 -17.34,19.54 -18.64,29.67 -1.28,10.11 1.5,19.15 8.36,27.06 6.86,7.93 15.35,11.95 25.46,12.12 10.12,0.12 20.86,-4.75 32.26,-14.64 11.27,-9.76 17.55,-19.52 18.78,-29.27 1.28,-9.75 -1.64,-18.71 -8.75,-26.92 -7.09,-8.18 -15.63,-12.35 -25.56,-12.5 -9.96,-0.14 -20.6,4.68 -31.91,14.48zm134.36 159.29l14.09 22.53c-12.32,8.26 -24.18,12.03 -35.59,11.35 -11.39,-0.71 -22.36,-5.61 -32.9,-14.73 -13.06,-11.31 -19.92,-25.06 -20.61,-41.26 -0.67,-16.18 5.68,-32.01 19.09,-47.49 14.16,-16.35 29.39,-25.4 45.68,-27.15 16.27,-1.74 31.31,3.36 45.07,15.28 12.03,10.42 18.7,22.44 20.04,36.04 0.84,8.09 -1.05,17.02 -5.64,26.84l-23.66 -12.32c3.23,-6.09 4.29,-12.21 3.17,-18.35 -1.15,-6.15 -4.37,-11.5 -9.62,-16.05 -7.3,-6.32 -15.48,-8.84 -24.54,-7.53 -9.07,1.28 -18.66,7.77 -28.8,19.48 -10.73,12.39 -16.15,23.18 -16.25,32.3 -0.09,9.16 3.44,16.82 10.59,23.02 5.29,4.57 11.28,6.85 17.99,6.77 6.71,-0.07 14,-2.95 21.89,-8.73zm110.36 144.82l-23.1 -16.42 8 -30.62 -42.47 -30.2 -25.95 17.86 -22.67 -16.13 116.41 -76.67 22.65 16.11 -32.87 136.07zm-9.33 -69.88l13.15 -49.65 -42.16 29.02 29.01 20.63zm32.07 84.46l64.76 -112.65 22.08 12.7 2.96 102.14 43.4 -75.49 21.09 12.12 -64.76 112.65 -22.79 -13.1 -3.08 -100.3 -42.58 74.05 -21.08 -12.12zm180.64 -46.96l43.61 19.71c9.84,4.45 17,8.58 21.46,12.43 6,5.17 10.31,11.49 12.87,18.96 2.61,7.45 3.47,15.54 2.63,24.29 -0.85,8.71 -3.78,18.64 -8.79,29.72 -4.41,9.75 -9.41,17.59 -15.03,23.55 -6.84,7.29 -14.21,12.36 -22.1,15.19 -5.97,2.19 -12.98,2.8 -21.03,1.89 -6.03,-0.7 -13.43,-3.05 -22.25,-7.04l-44.9 -20.3 53.53 -118.4zm14.94 30.84l-35.44 78.39 17.78 8.04c6.64,3 11.61,4.79 14.9,5.37 4.32,0.8 8.26,0.59 11.85,-0.58 3.61,-1.16 7.39,-4.03 11.38,-8.59 4.02,-4.56 8.1,-11.45 12.23,-20.6 4.14,-9.15 6.5,-16.52 7.09,-22.16 0.63,-5.62 0.09,-10.45 -1.56,-14.51 -1.66,-4.04 -4.48,-7.57 -8.51,-10.55 -2.97,-2.24 -9.33,-5.58 -19.03,-9.97l-10.69 -4.84zm64.67 144.66l41.3 -122.06 24.92 8.44 -34.26 101.25 61.72 20.89 -7.04 20.8 -86.64 -29.32zm116.87 36.61l29.22 -126.61 93.73 21.63 -4.94 21.39 -68.08 -15.71 -6.5 28.12 63.32 14.61 -4.94 21.39 -63.31 -14.6 -7.92 34.3 70.56 16.28 -4.93 21.4 -96.21 -22.2zm214.89 -0.92l25.71 -0.59c0.89,8.65 3.48,15.13 7.86,19.49 4.36,4.37 10.52,6.84 18.45,7.44 8.39,0.64 14.85,-0.66 19.37,-3.89 4.53,-3.24 6.99,-7.24 7.35,-12.01 0.24,-3.07 -0.48,-5.73 -2.09,-8.04 -1.61,-2.28 -4.61,-4.39 -8.95,-6.29 -2.97,-1.32 -9.76,-3.72 -20.41,-7.26 -13.7,-4.56 -23.18,-9.59 -28.43,-15.11 -7.39,-7.76 -10.68,-16.77 -9.89,-27.06 0.49,-6.6 2.84,-12.67 6.99,-18.15 4.17,-5.48 9.87,-9.44 17.13,-11.92 7.26,-2.48 15.82,-3.35 25.77,-2.59 16.2,1.23 28.14,5.75 35.77,13.58 7.65,7.83 11.21,17.74 10.71,29.81l-26.31 -1.09c-0.61,-6.78 -2.62,-11.76 -6.05,-14.96 -3.43,-3.2 -8.8,-5.1 -16.1,-5.66 -7.55,-0.57 -13.57,0.55 -18.06,3.37 -2.9,1.8 -4.5,4.39 -4.75,7.77 -0.24,3.07 0.86,5.79 3.29,8.17 3.08,3.05 10.85,6.55 23.32,10.53 12.46,3.95 21.61,7.8 27.43,11.46 5.84,3.69 10.28,8.43 13.29,14.27 3.02,5.84 4.21,12.85 3.59,21.02 -0.56,7.42 -3.15,14.23 -7.77,20.4 -4.63,6.17 -10.81,10.55 -18.59,13.12 -7.78,2.59 -17.31,3.44 -28.56,2.59 -16.37,-1.25 -28.66,-5.97 -36.87,-14.21 -8.2,-8.21 -12.58,-19.62 -13.2,-34.19zm167.59 49.5l-2.73 -107.95 -38.47 0.98 -0.55 -21.96 103.05 -2.6 0.55 21.95 -38.28 0.97 2.73 107.95 -26.3 0.66zm78.39 -67.21c-1.66,-13.15 -1.09,-24.44 1.71,-33.88 2.07,-6.94 5.34,-13.36 9.75,-19.23 4.41,-5.86 9.47,-10.44 15.18,-13.76 7.6,-4.41 16.66,-7.3 27.16,-8.63 19.02,-2.42 34.96,1.56 47.89,11.9 12.9,10.37 20.69,26.07 23.36,47.1 2.65,20.85 -0.95,37.9 -10.76,51.1 -9.82,13.23 -24.22,21.04 -43.15,23.44 -19.18,2.44 -35.2,-1.47 -48,-11.77 -12.8,-10.27 -20.52,-25.69 -23.14,-46.27zm26.72 -4.28c1.85,14.61 6.65,25.25 14.36,31.96 7.71,6.67 16.78,9.36 27.15,8.04 10.42,-1.32 18.46,-6.16 24.2,-14.48 5.71,-8.35 7.62,-19.99 5.71,-34.96 -1.87,-14.79 -6.52,-25.43 -13.95,-31.86 -7.41,-6.46 -16.48,-9.01 -27.25,-7.64 -10.75,1.37 -18.95,6.17 -24.58,14.35 -5.64,8.21 -7.53,19.74 -5.64,34.59zm209.72 -19.38l26.51 1.89c-0.58,14.82 -4.53,26.62 -11.81,35.45 -7.28,8.78 -17.71,14.76 -31.29,17.89 -16.83,3.88 -31.98,1.33 -45.48,-7.66 -13.46,-9 -22.51,-23.46 -27.12,-43.41 -4.86,-21.07 -3.19,-38.72 4.99,-52.9 8.19,-14.18 21.16,-23.32 38.91,-27.42 15.5,-3.57 29.14,-1.88 40.93,5.06 7.03,4.09 13.12,10.88 18.36,20.37l-23.9 11.86c-3.01,-6.2 -7.34,-10.67 -12.96,-13.37 -5.65,-2.71 -11.86,-3.26 -18.64,-1.7 -9.41,2.17 -16.26,7.3 -20.54,15.39 -4.32,8.08 -4.72,19.65 -1.23,34.74 3.68,15.98 9.2,26.72 16.51,32.17 7.35,5.47 15.62,7.13 24.85,5.01 6.8,-1.57 12.17,-5.08 16.06,-10.54 3.9,-5.46 5.87,-13.06 5.85,-22.83zm70.81 31.32l-41.65 -123.08 24.93 -8.44 18.45 54.53 31.77 -71.52 33.41 -11.31 -30.22 63.65 74.27 58.62 -32.14 10.88 -53.43 -46.33 -13.06 27.35 12.6 37.22 -24.93 8.43zm215.66 -83.73l-64.76 -112.65 34.17 -19.64 64.36 65.22 -24.22 -88.3 34.25 -19.69 64.76 112.65 -21.08 12.12 -51.06 -88.64 28.77 101.46 -21.92 12.6 -73.09 -75.97 50.91 88.73 -21.09 12.11zm238.04 -152.56l-23.1 16.42 -26.29 -17.6 -42.47 30.2 8.34 30.36 -22.68 16.13 -34.17 -135.14 22.65 -16.11 117.72 75.74zm-69.07 -14.14l-42.58 -28.73 13.57 49.36 29.01 -20.63zm57.56 -29.82l17.68 -18.68c6.77,5.47 13.2,8.18 19.38,8.15 6.17,-0.03 12.26,-2.66 18.27,-7.86 6.36,-5.51 9.99,-11.02 10.87,-16.51 0.89,-5.49 -0.22,-10.05 -3.34,-13.66 -2.03,-2.34 -4.41,-3.71 -7.19,-4.18 -2.75,-0.46 -6.36,0.18 -10.77,1.92 -3.02,1.18 -9.51,4.32 -19.53,9.39 -12.88,6.52 -23.12,9.7 -30.74,9.54 -10.71,-0.21 -19.43,-4.22 -26.18,-12.02 -4.33,-5 -7,-10.94 -7.97,-17.74 -0.95,-6.83 0.25,-13.66 3.6,-20.57 3.35,-6.9 8.76,-13.59 16.3,-20.12 12.28,-10.64 23.9,-15.93 34.83,-15.84 10.95,0.08 20.49,4.54 28.71,13.39l-19.29 17.91c-5.24,-4.34 -10.2,-6.41 -14.89,-6.23 -4.69,0.17 -9.82,2.66 -15.35,7.45 -5.72,4.95 -9.16,10.02 -10.33,15.19 -0.75,3.33 -0.04,6.28 2.17,8.84 2.02,2.33 4.73,3.47 8.12,3.41 4.34,-0.03 12.3,-3.08 23.9,-9.13 11.59,-6.08 20.76,-9.86 27.45,-11.42 6.74,-1.54 13.22,-1.36 19.5,0.61 6.26,1.97 12.08,6.06 17.45,12.26 4.87,5.62 7.89,12.24 9.02,19.87 1.12,7.63 -0.13,15.11 -3.78,22.44 -3.64,7.35 -9.74,14.72 -18.27,22.11 -12.41,10.75 -24.43,16.15 -36.05,16.17 -11.6,0.05 -22.79,-4.87 -33.57,-14.69zm152.25 -85.49l-78.15 -74.52 -26.55 27.84 -15.89 -15.15 71.14 -74.6 15.89 15.15 -26.43 27.72 78.15 74.52 -18.16 19.04zm65.23 -68.61l-102.17 -80.29 59.44 -75.63 17.26 13.57 -43.17 54.94 22.69 17.83 40.15 -51.09 17.27 13.57 -40.16 51.09 27.68 21.75 44.75 -56.93 17.27 13.57 -61.01 77.62zm81 -107.81l-109.39 -70.13 29.82 -46.52c7.5,-11.69 13.95,-19.56 19.3,-23.59 5.37,-4.07 11.57,-6.06 18.62,-6.03 7.09,0.05 13.85,2.12 20.32,6.26 8.22,5.28 13.46,12.02 15.72,20.25 2.26,8.25 1.02,17.58 -3.72,28.05 5.83,-2.98 11.4,-4.94 16.71,-5.88 5.33,-0.97 13.94,-1.35 25.81,-1.14l29.89 0.34 -16.93 26.4 -34.04 0.53c-12.12,0.25 -19.97,0.71 -23.53,1.4 -3.53,0.69 -6.48,1.93 -8.8,3.74 -2.33,1.85 -5.12,5.31 -8.39,10.4l-2.87 4.48 45.68 29.29 -14.2 22.15zm-48.89 -62.6l10.47 -16.35c6.8,-10.59 10.57,-17.48 11.37,-20.7 0.79,-3.2 0.58,-6.28 -0.66,-9.16 -1.23,-2.91 -3.51,-5.41 -6.8,-7.52 -3.69,-2.36 -7.28,-3.26 -10.82,-2.77 -3.53,0.51 -6.73,2.37 -9.6,5.55 -1.42,1.65 -4.99,6.94 -10.72,15.88l-11.06 17.24 27.82 17.83z"/>
   </g>
   <path class="fil7" d="M3399.22 1460.67l0 -372.9 120.74 0c45.74,0 75.52,1.82 89.41,5.56 21.35,5.64 39.23,17.79 53.64,36.54 14.41,18.75 21.61,42.97 21.61,72.65 0,22.92 -4.16,42.1 -12.41,57.72 -8.33,15.63 -18.84,27.87 -31.6,36.81 -12.76,8.85 -25.78,14.76 -38.97,17.62 -17.97,3.56 -43.92,5.38 -77.95,5.38l-48.95 0 0 140.62 -75.52 0zm75.52 -309.88l0 106.24 41.05 0c29.6,0 49.31,-1.99 59.29,-5.9 9.98,-3.91 17.79,-9.98 23.44,-18.4 5.64,-8.33 8.5,-17.97 8.5,-29.08 0,-13.63 -3.99,-24.83 -11.89,-33.68 -7.99,-8.85 -17.97,-14.41 -30.21,-16.66 -8.94,-1.65 -26.91,-2.52 -53.99,-2.52l-36.19 0zm318.69 309.88l0 -372.9 158.59 0c39.84,0 68.83,3.39 86.88,10.07 18.15,6.68 32.55,18.57 43.41,35.67 10.85,17.19 16.31,36.72 16.31,58.77 0,28.04 -8.16,51.13 -24.56,69.35 -16.41,18.23 -40.88,29.69 -73.52,34.46 16.23,9.47 29.6,19.88 40.1,31.25 10.59,11.37 24.83,31.6 42.71,60.59l45.48 72.74 -90.01 0 -53.99 -81.42c-19.36,-28.9 -32.64,-47.13 -39.85,-54.69 -7.11,-7.46 -14.66,-12.67 -22.65,-15.45 -8.07,-2.77 -20.75,-4.16 -38.11,-4.16l-15.27 0 0 155.72 -75.52 0zm75.52 -215.09l55.72 0c36.11,0 58.59,-1.57 67.62,-4.61 8.94,-3.03 16.06,-8.33 21.09,-15.79 5.13,-7.47 7.64,-16.84 7.64,-28.04 0,-12.59 -3.38,-22.66 -10.07,-30.47 -6.68,-7.72 -16.14,-12.58 -28.29,-14.58 -6.17,-0.87 -24.48,-1.3 -54.95,-1.3l-58.76 0 0 94.79zm331.79 30.9c0,-38.02 5.73,-69.97 17.1,-95.83 8.42,-19.01 20.06,-36.11 34.73,-51.22 14.66,-15.1 30.72,-26.3 48.17,-33.67 23.26,-9.81 50.08,-14.76 80.47,-14.76 55.03,0 98.95,17.1 132.02,51.21 32.99,34.2 49.48,81.68 49.48,142.53 0,60.33 -16.41,107.55 -49.13,141.57 -32.73,34.12 -76.56,51.13 -131.33,51.13 -55.47,0 -99.65,-16.93 -132.38,-50.87 -32.72,-33.85 -49.13,-80.55 -49.13,-140.09zm77.61 -2.52c0,42.27 9.8,74.3 29.33,96.18 19.53,21.78 44.36,32.72 74.39,32.72 30.12,0 54.78,-10.85 74.13,-32.46 19.27,-21.7 28.91,-54.17 28.91,-97.48 0,-42.8 -9.38,-74.74 -28.21,-95.74 -18.75,-21.1 -43.66,-31.6 -74.83,-31.6 -31.07,0 -56.16,10.68 -75.17,31.94 -19.01,21.36 -28.55,53.47 -28.55,96.44zm628.48 49.22l72.91 22.39c-11.19,41.06 -29.86,71.53 -55.9,91.49 -26.04,19.88 -59.02,29.86 -99.04,29.86 -49.56,0 -90.27,-16.93 -122.21,-50.78 -31.86,-33.85 -47.83,-80.12 -47.83,-138.88 0,-62.07 16.06,-110.33 48.09,-144.7 32.03,-34.37 74.21,-51.56 126.47,-51.56 45.65,0 82.72,13.54 111.19,40.54 17.01,15.97 29.69,38.88 38.19,68.83l-74.47 17.71c-4.43,-19.27 -13.63,-34.55 -27.61,-45.75 -14.06,-11.19 -31.07,-16.75 -51.04,-16.75 -27.69,0 -50.17,9.9 -67.35,29.77 -17.28,19.79 -25.87,51.91 -25.87,96.35 0,47.05 8.51,80.64 25.43,100.61 17.01,20.05 39.06,30.03 66.23,30.03 20.05,0 37.33,-6.34 51.74,-19.1 14.4,-12.76 24.82,-32.72 31.07,-60.06zm520.33 137.49l-81.33 0 -32.21 -84.89 -149.55 0 -30.99 84.89 -79.86 0 144.79 -372.9 79.77 0 149.38 372.9zm-138.01 -147.91l-51.82 -138.01 -50.35 138.01 102.17 0zm225.03 147.91l0 -372.9 73.09 0 153.46 249.9 0 -249.9 69.79 0 0 372.9 -75.43 0 -151.12 -245.13 0 245.13 -69.79 0zm422.94 -372.9l137.32 0c30.99,0 54.6,2.34 70.83,7.12 21.79,6.42 40.54,17.88 56.07,34.37 15.63,16.41 27.43,36.54 35.59,60.42 8.07,23.78 12.15,53.2 12.15,88.1 0,30.73 -3.81,57.11 -11.45,79.34 -9.29,27.16 -22.57,49.13 -39.85,65.88 -13.02,12.76 -30.64,22.65 -52.77,29.77 -16.58,5.3 -38.71,7.9 -66.49,7.9l-141.4 0 0 -372.9zm75.52 63.02l0 246.86 55.98 0c20.92,0 36.03,-1.21 45.31,-3.56 12.24,-3.03 22.31,-8.24 30.3,-15.53 8.07,-7.3 14.58,-19.27 19.62,-35.94 5.12,-16.67 7.63,-39.5 7.63,-68.31 0,-28.82 -2.51,-50.87 -7.63,-66.32 -5.04,-15.45 -12.16,-27.43 -21.27,-36.11 -9.12,-8.59 -20.66,-14.5 -34.72,-17.53 -10.42,-2.35 -30.99,-3.56 -61.54,-3.56l-33.68 0zm349.5 309.88l0 -369.78 75.52 0 0 306.76 186.97 0 0 63.02 -262.49 0zm362.88 0l0 -372.9 276.03 0 0 63.02 -200.51 0 0 82.81 186.45 0 0 63.01 -186.45 0 0 101.04 207.8 0 0 63.02 -283.32 0z"/>
   <path class="fil7" d="M3586.06 1805.4l43.21 -4.29c2.6,14.45 7.81,25.02 15.73,31.82 7.92,6.79 18.59,10.16 32.02,10.16 14.2,0 24.92,-3.01 32.12,-9.04 7.2,-6.03 10.83,-13.07 10.83,-21.14 0,-5.21 -1.53,-9.6 -4.54,-13.28 -3.02,-3.63 -8.33,-6.79 -15.89,-9.45 -5.16,-1.84 -16.9,-5 -35.29,-9.6 -23.64,-5.92 -40.24,-13.18 -49.79,-21.81 -13.43,-12.1 -20.12,-26.86 -20.12,-44.27 0,-11.19 3.16,-21.71 9.45,-31.46 6.33,-9.76 15.42,-17.16 27.32,-22.27 11.9,-5.11 26.2,-7.66 43.05,-7.66 27.43,0 48.11,6.08 61.95,18.28 13.89,12.21 21.14,28.45 21.86,48.83l-44.43 1.53c-1.89,-11.34 -5.93,-19.46 -12.11,-24.41 -6.18,-4.96 -15.47,-7.46 -27.83,-7.46 -12.77,0 -22.78,2.66 -29.98,7.97 -4.65,3.42 -7,7.96 -7,13.68 0,5.21 2.2,9.66 6.59,13.33 5.57,4.75 19.1,9.66 40.6,14.76 21.5,5.06 37.39,10.37 47.65,15.78 10.32,5.47 18.39,12.87 24.21,22.32 5.82,9.45 8.73,21.09 8.73,34.93 0,12.57 -3.47,24.36 -10.47,35.34 -6.99,10.98 -16.85,19.15 -29.62,24.47 -12.77,5.36 -28.7,8.01 -47.75,8.01 -27.73,0 -49.03,-6.38 -63.89,-19.2 -14.86,-12.77 -23.69,-31.41 -26.61,-55.87zm338.26 71.09l0 -182.32 -64.96 0 0 -37.08 174.05 0 0 37.08 -64.66 0 0 182.32 -44.43 0zm196.04 -108.37c0,-22.37 3.37,-41.16 10.06,-56.38 4.95,-11.19 11.79,-21.25 20.42,-30.13 8.64,-8.89 18.08,-15.48 28.35,-19.82 13.69,-5.77 29.47,-8.68 47.34,-8.68 32.38,0 58.22,10.06 77.68,30.13 19.4,20.12 29.11,48.06 29.11,83.86 0,35.49 -9.65,63.27 -28.91,83.29 -19.25,20.07 -45.04,30.08 -77.27,30.08 -32.63,0 -58.62,-9.96 -77.88,-29.92 -19.25,-19.92 -28.9,-47.4 -28.9,-82.43zm45.65 -1.48c0,24.87 5.77,43.71 17.26,56.58 11.5,12.82 26.1,19.26 43.77,19.26 17.72,0 32.23,-6.39 43.62,-19.1 11.33,-12.77 17,-31.87 17,-57.35 0,-25.18 -5.51,-43.98 -16.6,-56.33 -11.03,-12.41 -25.68,-18.59 -44.02,-18.59 -18.28,0 -33.04,6.28 -44.23,18.79 -11.18,12.56 -16.8,31.46 -16.8,56.74zm415.12 28.96l42.9 13.17c-6.59,24.16 -17.57,42.08 -32.89,53.83 -15.32,11.69 -34.73,17.57 -58.27,17.57 -29.16,0 -53.11,-9.96 -71.91,-29.88 -18.74,-19.92 -28.14,-47.14 -28.14,-81.71 0,-36.52 9.45,-64.91 28.29,-85.13 18.85,-20.23 43.67,-30.34 74.41,-30.34 26.87,0 48.67,7.97 65.42,23.85 10.01,9.4 17.47,22.88 22.47,40.5l-43.81 10.42c-2.61,-11.34 -8.02,-20.33 -16.24,-26.92 -8.28,-6.59 -18.29,-9.85 -30.03,-9.85 -16.29,0 -29.52,5.82 -39.63,17.51 -10.17,11.65 -15.22,30.54 -15.22,56.69 0,27.68 5,47.44 14.96,59.19 10.01,11.8 22.98,17.67 38.97,17.67 11.8,0 21.96,-3.73 30.44,-11.23 8.47,-7.51 14.6,-19.26 18.28,-35.34zm154.46 80.89l0 -219.4 44.43 0 0 97.19 89.53 -97.19 59.55 0 -82.79 85.44 87.08 133.96 -57.3 0 -60.37 -103.01 -35.7 36.67 0 66.34 -44.43 0zm451 0l0 -219.4 66.54 0 39.32 149.64 38.87 -149.64 66.7 0 0 219.4 -41.06 0 -0.16 -172.72 -43.25 172.72 -42.7 0 -43.05 -172.72 -0.15 172.72 -41.06 0zm526.4 0l-47.85 0 -18.95 -49.95 -87.99 0 -18.24 49.95 -46.98 0 85.18 -219.4 46.94 0 87.89 219.4zm-81.2 -87.02l-30.49 -81.2 -29.62 81.2 60.11 0zm166.1 15.93l43.21 -4.29c2.6,14.45 7.81,25.02 15.73,31.82 7.92,6.79 18.59,10.16 32.02,10.16 14.2,0 24.92,-3.01 32.12,-9.04 7.2,-6.03 10.83,-13.07 10.83,-21.14 0,-5.21 -1.53,-9.6 -4.54,-13.28 -3.02,-3.63 -8.33,-6.79 -15.89,-9.45 -5.16,-1.84 -16.9,-5 -35.29,-9.6 -23.64,-5.92 -40.24,-13.18 -49.79,-21.81 -13.43,-12.1 -20.12,-26.86 -20.12,-44.27 0,-11.19 3.16,-21.71 9.45,-31.46 6.33,-9.76 15.42,-17.16 27.32,-22.27 11.9,-5.11 26.2,-7.66 43.05,-7.66 27.43,0 48.11,6.08 61.95,18.28 13.89,12.21 21.14,28.45 21.86,48.83l-44.43 1.53c-1.89,-11.34 -5.93,-19.46 -12.11,-24.41 -6.18,-4.96 -15.47,-7.46 -27.83,-7.46 -12.77,0 -22.78,2.66 -29.98,7.97 -4.65,3.42 -7,7.96 -7,13.68 0,5.21 2.2,9.66 6.59,13.33 5.57,4.75 19.1,9.66 40.6,14.76 21.5,5.06 37.39,10.37 47.65,15.78 10.32,5.47 18.39,12.87 24.21,22.32 5.82,9.45 8.73,21.09 8.73,34.93 0,12.57 -3.47,24.36 -10.47,35.34 -6.99,10.98 -16.85,19.15 -29.62,24.47 -12.77,5.36 -28.7,8.01 -47.75,8.01 -27.73,0 -49.03,-6.38 -63.89,-19.2 -14.86,-12.77 -23.69,-31.41 -26.61,-55.87zm338.26 71.09l0 -182.32 -64.96 0 0 -37.08 174.05 0 0 37.08 -64.66 0 0 182.32 -44.43 0zm210.74 0l0 -219.4 162.4 0 0 37.08 -117.97 0 0 48.72 109.7 0 0 37.08 -109.7 0 0 59.44 122.26 0 0 37.08 -166.69 0zm277.28 0l0 -219.4 93.3 0c23.44,0 40.5,2 51.12,5.93 10.68,3.93 19.16,10.93 25.54,20.99 6.38,10.11 9.6,21.6 9.6,34.57 0,16.5 -4.8,30.08 -14.45,40.81 -9.65,10.72 -24.06,17.46 -43.26,20.27 9.55,5.57 17.42,11.7 23.6,18.39 6.23,6.69 14.6,18.59 25.12,35.64l26.76 42.8 -52.96 0 -31.76 -47.9c-11.39,-17.01 -19.2,-27.73 -23.44,-32.18 -4.19,-4.39 -8.63,-7.45 -13.33,-9.09 -4.75,-1.63 -12.21,-2.45 -22.42,-2.45l-8.99 0 0 91.62 -44.43 0zm44.43 -126.55l32.79 0c21.24,0 34.47,-0.92 39.78,-2.71 5.26,-1.79 9.45,-4.9 12.41,-9.29 3.01,-4.39 4.49,-9.91 4.49,-16.5 0,-7.4 -1.99,-13.33 -5.92,-17.92 -3.93,-4.55 -9.5,-7.41 -16.65,-8.58 -3.62,-0.51 -14.4,-0.77 -32.33,-0.77l-34.57 0 0 55.77z"/>
  </g>
 </g>
</svg>
